<svg width="23" height="28" viewBox="0 0 23 28" fill="none" xmlns="http://www.w3.org/2000/svg">
<path d="M23 28H0V0H23V28Z" stroke="#E5E7EB"/>
<g clip-path="url(#clip0_2169_454)">
<path d="M2.5 6.25C1.12109 6.25 0 7.37109 0 8.75V10H22.5V8.75C22.5 7.37109 21.3789 6.25 20 6.25H2.5ZM22.5 13.75H0V21.25C0 22.6289 1.12109 23.75 2.5 23.75H20C21.3789 23.75 22.5 22.6289 22.5 21.25V13.75ZM4.375 18.75H6.875C7.21875 18.75 7.5 19.0312 7.5 19.375C7.5 19.7188 7.21875 20 6.875 20H4.375C4.03125 20 3.75 19.7188 3.75 19.375C3.75 19.0312 4.03125 18.75 4.375 18.75ZM8.75 19.375C8.75 19.0312 9.03125 18.75 9.375 18.75H14.375C14.7188 18.75 15 19.0312 15 19.375C15 19.7188 14.7188 20 14.375 20H9.375C9.03125 20 8.75 19.7188 8.75 19.375Z" fill="#00A5D9"/>
</g>
<defs>
<clipPath id="clip0_2169_454">
<path d="M0 5H22.5V25H0V5Z" fill="white"/>
</clipPath>
</defs>
</svg>
