<svg width="25" height="28" viewBox="0 0 25 28" fill="none" xmlns="http://www.w3.org/2000/svg">
<path d="M25 28H0V0H25V28Z" stroke="#E5E7EB"/>
<g clip-path="url(#clip0_2169_611)">
<path d="M6.25 6.5C6.25 5.12109 7.37109 4 8.75 4H22.5C23.8789 4 25 5.12109 25 6.5V17.75C25 19.1289 23.8789 20.25 22.5 20.25H13.1562C12.6953 19.2539 11.9883 18.3945 11.1094 17.75H15V16.5C15 15.8086 15.5586 15.25 16.25 15.25H18.75C19.4414 15.25 20 15.8086 20 16.5V17.75H22.5V6.5H8.75V8.41797C8.01562 7.99219 7.16016 7.75 6.25 7.75V6.5ZM6.25 9C6.74246 9 7.23009 9.097 7.68506 9.28545C8.14003 9.47391 8.55343 9.75013 8.90165 10.0983C9.24987 10.4466 9.52609 10.86 9.71455 11.3149C9.903 11.7699 10 12.2575 10 12.75C10 13.2425 9.903 13.7301 9.71455 14.1851C9.52609 14.64 9.24987 15.0534 8.90165 15.4017C8.55343 15.7499 8.14003 16.0261 7.68506 16.2145C7.23009 16.403 6.74246 16.5 6.25 16.5C5.75754 16.5 5.26991 16.403 4.81494 16.2145C4.35997 16.0261 3.94657 15.7499 3.59835 15.4017C3.25013 15.0534 2.97391 14.64 2.78545 14.1851C2.597 13.7301 2.5 13.2425 2.5 12.75C2.5 12.2575 2.597 11.7699 2.78545 11.3149C2.97391 10.86 3.25013 10.4466 3.59835 10.0983C3.94657 9.75013 4.35997 9.47391 4.81494 9.28545C5.26991 9.097 5.75754 9 6.25 9ZM5.20703 17.75H7.28906C10.168 17.75 12.5 20.082 12.5 22.957C12.5 23.5312 12.0352 24 11.457 24H1.04297C0.464844 24 0 23.5352 0 22.957C0 20.082 2.33203 17.75 5.20703 17.75Z" fill="#00A5D9"/>
</g>
<defs>
<clipPath id="clip0_2169_611">
<path d="M0 4H25V24H0V4Z" fill="white"/>
</clipPath>
</defs>
</svg>
